<svg xmlns="http://www.w3.org/2000/svg" width="335.17" height="35" viewBox="0 0 335.17 35"><rect class="svg__rect" x="0" y="0" width="137.07" height="35" fill="#8FC965"/><rect class="svg__rect" x="135.07" y="0" width="200.10000000000002" height="35" fill="#419B5A"/><path class="svg__text" d="M15.00 22L13.46 22L16.68 13.47L18.01 13.47L21.24 22L19.69 22L18.99 20.01L15.69 20.01L15.00 22ZM17.34 15.28L16.10 18.82L18.58 18.82L17.34 15.28ZM26.67 22L25.19 22L25.19 13.47L28.46 13.47Q29.89 13.47 30.73 14.21Q31.57 14.96 31.57 16.18L31.57 16.18Q31.57 17.44 30.74 18.13Q29.92 18.83 28.44 18.83L28.44 18.83L26.67 18.83L26.67 22ZM26.67 14.66L26.67 17.64L28.46 17.64Q29.25 17.64 29.66 17.27Q30.08 16.90 30.08 16.19L30.08 16.19Q30.08 15.50 29.66 15.09Q29.23 14.68 28.50 14.66L28.50 14.66L26.67 14.66ZM37.33 22L35.85 22L35.85 13.47L39.11 13.47Q40.54 13.47 41.38 14.21Q42.23 14.96 42.23 16.18L42.23 16.18Q42.23 17.44 41.40 18.13Q40.58 18.83 39.10 18.83L39.10 18.83L37.33 18.83L37.33 22ZM37.33 14.66L37.33 17.64L39.11 17.64Q39.90 17.64 40.32 17.27Q40.74 16.90 40.74 16.19L40.74 16.19Q40.74 15.50 40.31 15.09Q39.89 14.68 39.15 14.66L39.15 14.66L37.33 14.66ZM47.99 22L46.51 22L46.51 13.47L49.51 13.47Q50.98 13.47 51.79 14.13Q52.59 14.79 52.59 16.05L52.59 16.05Q52.59 16.90 52.18 17.48Q51.76 18.06 51.03 18.37L51.03 18.37L52.94 21.92L52.94 22L51.35 22L49.64 18.71L47.99 18.71L47.99 22ZM47.99 14.66L47.99 17.52L49.51 17.52Q50.26 17.52 50.69 17.15Q51.11 16.77 51.11 16.11L51.11 16.11Q51.11 15.43 50.72 15.05Q50.33 14.68 49.56 14.66L49.56 14.66L47.99 14.66ZM56.72 18.00L56.72 18.00L56.72 17.52Q56.72 16.28 57.16 15.32Q57.60 14.37 58.41 13.86Q59.21 13.35 60.25 13.35Q61.30 13.35 62.10 13.85Q62.91 14.35 63.35 15.29Q63.79 16.23 63.79 17.48L63.79 17.48L63.79 17.96Q63.79 19.21 63.36 20.16Q62.93 21.10 62.12 21.61Q61.31 22.12 60.27 22.12L60.27 22.12Q59.23 22.12 58.42 21.61Q57.61 21.10 57.16 20.17Q56.72 19.23 56.72 18.00ZM58.20 17.46L58.20 17.96Q58.20 19.36 58.75 20.13Q59.29 20.90 60.27 20.90L60.27 20.90Q61.25 20.90 61.78 20.15Q62.31 19.40 62.31 17.96L62.31 17.96L62.31 17.51Q62.31 16.09 61.77 15.34Q61.24 14.58 60.25 14.58L60.25 14.58Q59.29 14.58 58.75 15.33Q58.21 16.09 58.20 17.46L58.20 17.46ZM70.56 22L67.50 13.47L69.12 13.47L71.26 20.14L73.43 13.47L75.06 13.47L71.99 22L70.56 22ZM84.59 22L79.01 22L79.01 13.47L84.55 13.47L84.55 14.66L80.49 14.66L80.49 17.02L84.00 17.02L84.00 18.19L80.49 18.19L80.49 20.82L84.59 20.82L84.59 22ZM91.24 22L88.78 22L88.78 13.47L91.30 13.47Q92.43 13.47 93.31 13.97Q94.19 14.48 94.67 15.40Q95.15 16.33 95.15 17.52L95.15 17.52L95.15 17.95Q95.15 19.16 94.66 20.08Q94.18 21.00 93.29 21.50Q92.39 22 91.24 22L91.24 22ZM90.27 14.66L90.27 20.82L91.23 20.82Q92.40 20.82 93.02 20.09Q93.65 19.36 93.66 17.99L93.66 17.99L93.66 17.52Q93.66 16.13 93.06 15.40Q92.45 14.66 91.30 14.66L91.30 14.66L90.27 14.66ZM108.70 22L105.59 22L105.59 13.47L108.51 13.47Q109.96 13.47 110.72 14.05Q111.47 14.63 111.47 15.78L111.47 15.78Q111.47 16.36 111.15 16.83Q110.84 17.30 110.23 17.56L110.23 17.56Q110.92 17.75 111.30 18.26Q111.68 18.78 111.68 19.51L111.68 19.51Q111.68 20.71 110.91 21.36Q110.14 22 108.70 22L108.70 22ZM107.07 18.15L107.07 20.82L108.72 20.82Q109.41 20.82 109.81 20.47Q110.20 20.13 110.20 19.51L110.20 19.51Q110.20 18.18 108.84 18.15L108.84 18.15L107.07 18.15ZM107.07 14.66L107.07 17.06L108.52 17.06Q109.22 17.06 109.60 16.75Q109.99 16.43 109.99 15.86L109.99 15.86Q109.99 15.23 109.63 14.95Q109.27 14.66 108.51 14.66L108.51 14.66L107.07 14.66ZM118.19 18.86L115.32 13.47L116.97 13.47L118.93 17.51L120.89 13.47L122.53 13.47L119.67 18.86L119.67 22L118.19 22L118.19 18.86Z" fill="#FFFFFF"/><path class="svg__text" d="M153.23 22L149.26 22L149.26 13.60L153.23 13.60Q154.61 13.60 155.68 14.12Q156.75 14.63 157.34 15.58Q157.92 16.53 157.92 17.80L157.92 17.80Q157.92 19.07 157.34 20.02Q156.75 20.97 155.68 21.48Q154.61 22 153.23 22L153.23 22ZM151.64 15.50L151.64 20.10L153.14 20.10Q154.21 20.10 154.87 19.49Q155.52 18.88 155.52 17.80L155.52 17.80Q155.52 16.72 154.87 16.11Q154.21 15.50 153.14 15.50L153.14 15.50L151.64 15.50ZM162.22 17.80L162.22 17.80Q162.22 16.55 162.83 15.55Q163.43 14.56 164.50 14.00Q165.56 13.43 166.89 13.43L166.89 13.43Q168.22 13.43 169.28 14.00Q170.35 14.56 170.95 15.55Q171.56 16.55 171.56 17.80L171.56 17.80Q171.56 19.05 170.95 20.04Q170.35 21.04 169.29 21.60Q168.22 22.17 166.89 22.17L166.89 22.17Q165.56 22.17 164.50 21.60Q163.43 21.04 162.83 20.04Q162.22 19.05 162.22 17.80ZM164.62 17.80L164.62 17.80Q164.62 18.51 164.92 19.05Q165.22 19.60 165.74 19.90Q166.26 20.20 166.89 20.20L166.89 20.20Q167.53 20.20 168.04 19.90Q168.56 19.60 168.86 19.05Q169.16 18.51 169.16 17.80L169.16 17.80Q169.16 17.09 168.86 16.54Q168.56 16 168.04 15.70Q167.53 15.40 166.89 15.40L166.89 15.40Q166.25 15.40 165.74 15.70Q165.22 16 164.92 16.54Q164.62 17.09 164.62 17.80ZM175.86 17.80L175.86 17.80Q175.86 16.54 176.46 15.54Q177.05 14.55 178.12 13.99Q179.19 13.43 180.54 13.43L180.54 13.43Q181.71 13.43 182.65 13.83Q183.59 14.22 184.21 14.97L184.21 14.97L182.70 16.33Q181.85 15.40 180.68 15.40L180.68 15.40Q180.66 15.40 180.66 15.40L180.66 15.40Q179.58 15.40 178.92 16.06Q178.26 16.71 178.26 17.80L178.26 17.80Q178.26 18.50 178.56 19.04Q178.86 19.59 179.40 19.89Q179.94 20.20 180.63 20.20L180.63 20.20Q181.32 20.20 181.92 19.93L181.92 19.93L181.92 17.62L184.02 17.62L184.02 21.10Q183.29 21.61 182.36 21.89Q181.43 22.17 180.49 22.17L180.49 22.17Q179.17 22.17 178.11 21.61Q177.05 21.05 176.46 20.05Q175.86 19.06 175.86 17.80ZM188.94 18.26L188.94 18.26L188.94 13.60L191.32 13.60L191.32 18.19Q191.32 20.20 192.91 20.20L192.91 20.20Q194.49 20.20 194.49 18.19L194.49 18.19L194.49 13.60L196.84 13.60L196.84 18.26Q196.84 20.13 195.80 21.15Q194.76 22.17 192.89 22.17L192.89 22.17Q191.01 22.17 189.97 21.15Q188.94 20.13 188.94 18.26ZM204.28 22L201.92 22L201.92 13.60L204.28 13.60L204.28 17.09L207.53 13.60L210.14 13.60L206.71 17.32L210.32 22L207.56 22L205.16 18.95L204.28 19.90L204.28 22ZM215.85 22L213.42 22L217.13 13.60L219.48 13.60L223.19 22L220.72 22L220.06 20.37L216.51 20.37L215.85 22ZM218.29 15.93L217.20 18.61L219.37 18.61L218.29 15.93ZM229.68 22L227.35 22L227.35 13.60L229.30 13.60L233.01 18.07L233.01 13.60L235.34 13.60L235.34 22L233.39 22L229.68 17.52L229.68 22ZM249.83 22L247.47 22L247.47 13.60L249.83 13.60L249.83 17.09L253.08 13.60L255.69 13.60L252.27 17.32L255.88 22L253.12 22L250.71 18.95L249.83 19.90L249.83 22ZM261.40 22L258.97 22L262.68 13.60L265.03 13.60L268.74 22L266.28 22L265.61 20.37L262.06 20.37L261.40 22ZM263.84 15.93L262.75 18.61L264.92 18.61L263.84 15.93ZM279.28 22L272.90 22L272.90 13.60L275.28 13.60L275.28 20.11L279.28 20.11L279.28 22ZM290.45 22L283.70 22L283.70 13.60L290.29 13.60L290.29 15.44L286.06 15.44L286.06 16.85L289.79 16.85L289.79 18.63L286.06 18.63L286.06 20.17L290.45 20.17L290.45 22ZM297.45 22L295.25 22L295.25 13.60L297.21 13.60L300.16 18.45L303.04 13.60L304.99 13.60L305.02 22L302.84 22L302.81 17.55L300.65 21.17L299.60 21.17L297.45 17.67L297.45 22ZM316.57 22L310.18 22L310.18 13.60L312.56 13.60L312.56 20.11L316.57 20.11L316.57 22ZM323.36 22L320.98 22L320.98 13.60L323.36 13.60L323.36 22Z" fill="#FFFFFF" x="148.07"/></svg>