<svg xmlns="http://www.w3.org/2000/svg" width="218.91" height="35" viewBox="0 0 218.91 35"><rect class="svg__rect" x="0" y="0" width="115.31" height="35" fill="#EF4041"/><rect class="svg__rect" x="113.31" y="0" width="105.6" height="35" fill="#C1282D"/><path class="svg__text" d="M15.69 22L14.22 22L14.22 13.47L16.14 13.47L18.60 20.01L21.06 13.47L22.97 13.47L22.97 22L21.49 22L21.49 19.19L21.64 15.43L19.12 22L18.06 22L15.55 15.43L15.69 19.19L15.69 22ZM28.49 22L26.95 22L30.17 13.47L31.50 13.47L34.73 22L33.18 22L32.49 20.01L29.18 20.01L28.49 22ZM30.83 15.28L29.60 18.82L32.07 18.82L30.83 15.28ZM41.14 22L38.69 22L38.69 13.47L41.21 13.47Q42.34 13.47 43.21 13.97Q44.09 14.48 44.57 15.40Q45.05 16.33 45.05 17.52L45.05 17.52L45.05 17.95Q45.05 19.16 44.57 20.08Q44.08 21.00 43.19 21.50Q42.30 22 41.14 22L41.14 22ZM40.17 14.66L40.17 20.82L41.14 20.82Q42.30 20.82 42.93 20.09Q43.55 19.36 43.56 17.99L43.56 17.99L43.56 17.52Q43.56 16.13 42.96 15.40Q42.35 14.66 41.21 14.66L41.21 14.66L40.17 14.66ZM55.09 22L49.51 22L49.51 13.47L55.05 13.47L55.05 14.66L51.00 14.66L51.00 17.02L54.50 17.02L54.50 18.19L51.00 18.19L51.00 20.82L55.09 20.82L55.09 22ZM66.65 22L64.68 13.47L66.15 13.47L67.47 19.88L69.10 13.47L70.34 13.47L71.96 19.89L73.27 13.47L74.74 13.47L72.77 22L71.35 22L69.73 15.77L68.07 22L66.65 22ZM80.38 22L78.90 22L78.90 13.47L80.38 13.47L80.38 22ZM86.87 14.66L84.23 14.66L84.23 13.47L91.00 13.47L91.00 14.66L88.34 14.66L88.34 22L86.87 22L86.87 14.66ZM96.24 22L94.75 22L94.75 13.47L96.24 13.47L96.24 17.02L100.05 17.02L100.05 13.47L101.53 13.47L101.53 22L100.05 22L100.05 18.21L96.24 18.21L96.24 22Z" fill="#FFFFFF"/><path class="svg__text" d="M133.88 22L127.50 22L127.50 13.60L129.88 13.60L129.88 20.11L133.88 20.11L133.88 22ZM139.72 22L137.29 22L141.00 13.60L143.35 13.60L147.06 22L144.60 22L143.93 20.37L140.38 20.37L139.72 22ZM142.16 15.93L141.07 18.61L143.24 18.61L142.16 15.93ZM153.60 22L151.22 22L151.22 13.60L155.06 13.60Q156.20 13.60 157.04 13.98Q157.88 14.35 158.34 15.06Q158.79 15.76 158.79 16.71L158.79 16.71Q158.79 17.62 158.37 18.30Q157.94 18.98 157.15 19.36L157.15 19.36L158.96 22L156.41 22L154.89 19.77L153.60 19.77L153.60 22ZM153.60 15.47L153.60 17.93L154.91 17.93Q155.65 17.93 156.02 17.61Q156.39 17.29 156.39 16.71L156.39 16.71Q156.39 16.12 156.02 15.79Q155.65 15.47 154.91 15.47L154.91 15.47L153.60 15.47ZM165.00 22L162.57 22L166.28 13.60L168.62 13.60L172.34 22L169.87 22L169.21 20.37L165.66 20.37L165.00 22ZM167.44 15.93L166.35 18.61L168.51 18.61L167.44 15.93ZM179.08 22L175.49 13.60L178.06 13.60L180.34 19.07L182.66 13.60L185.01 13.60L181.42 22L179.08 22ZM195.91 22L189.17 22L189.17 13.60L195.76 13.60L195.76 15.44L191.52 15.44L191.52 16.85L195.26 16.85L195.26 18.63L191.52 18.63L191.52 20.17L195.91 20.17L195.91 22ZM207.10 22L200.72 22L200.72 13.60L203.10 13.60L203.10 20.11L207.10 20.11L207.10 22Z" fill="#FFFFFF" x="126.31"/></svg>