<svg xmlns="http://www.w3.org/2000/svg" width="221.51999999999998" height="35" viewBox="0 0 221.51999999999998 35"><rect class="svg__rect" x="0" y="0" width="115.31" height="35" fill="#31C4F3"/><rect class="svg__rect" x="113.31" y="0" width="108.21" height="35" fill="#389AD5"/><path class="svg__text" d="M15.69 22L14.22 22L14.22 13.47L16.14 13.47L18.60 20.01L21.06 13.47L22.97 13.47L22.97 22L21.49 22L21.49 19.19L21.64 15.43L19.12 22L18.06 22L15.55 15.43L15.69 19.19L15.69 22ZM28.49 22L26.95 22L30.17 13.47L31.50 13.47L34.73 22L33.18 22L32.49 20.01L29.18 20.01L28.49 22ZM30.83 15.28L29.60 18.82L32.07 18.82L30.83 15.28ZM41.14 22L38.69 22L38.69 13.47L41.21 13.47Q42.34 13.47 43.21 13.97Q44.09 14.48 44.57 15.40Q45.05 16.33 45.05 17.52L45.05 17.52L45.05 17.95Q45.05 19.16 44.57 20.08Q44.08 21.00 43.19 21.50Q42.30 22 41.14 22L41.14 22ZM40.17 14.66L40.17 20.82L41.14 20.82Q42.30 20.82 42.93 20.09Q43.55 19.36 43.56 17.99L43.56 17.99L43.56 17.52Q43.56 16.13 42.96 15.40Q42.35 14.66 41.21 14.66L41.21 14.66L40.17 14.66ZM55.09 22L49.51 22L49.51 13.47L55.05 13.47L55.05 14.66L51.00 14.66L51.00 17.02L54.50 17.02L54.50 18.19L51.00 18.19L51.00 20.82L55.09 20.82L55.09 22ZM66.65 22L64.68 13.47L66.15 13.47L67.47 19.88L69.10 13.47L70.34 13.47L71.96 19.89L73.27 13.47L74.74 13.47L72.77 22L71.35 22L69.73 15.77L68.07 22L66.65 22ZM80.38 22L78.90 22L78.90 13.47L80.38 13.47L80.38 22ZM86.87 14.66L84.23 14.66L84.23 13.47L91.00 13.47L91.00 14.66L88.34 14.66L88.34 22L86.87 22L86.87 14.66ZM96.24 22L94.75 22L94.75 13.47L96.24 13.47L96.24 17.02L100.05 17.02L100.05 13.47L101.53 13.47L101.53 22L100.05 22L100.05 18.21L96.24 18.21L96.24 22Z" fill="#FFFFFF"/><path class="svg__text" d="M128.92 22L126.49 22L130.20 13.60L132.54 13.60L136.26 22L133.79 22L133.13 20.37L129.58 20.37L128.92 22ZM131.35 15.93L130.27 18.61L132.43 18.61L131.35 15.93ZM142.79 22L140.41 22L140.41 13.60L144.26 13.60Q145.40 13.60 146.24 13.98Q147.07 14.35 147.53 15.06Q147.99 15.76 147.99 16.71L147.99 16.71Q147.99 17.62 147.56 18.30Q147.13 18.98 146.34 19.36L146.34 19.36L148.15 22L145.61 22L144.09 19.77L142.79 19.77L142.79 22ZM142.79 15.47L142.79 17.93L144.11 17.93Q144.84 17.93 145.21 17.61Q145.59 17.29 145.59 16.71L145.59 16.71Q145.59 16.12 145.21 15.79Q144.84 15.47 144.11 15.47L144.11 15.47L142.79 15.47ZM156.75 22L152.78 22L152.78 13.60L156.75 13.60Q158.13 13.60 159.20 14.12Q160.26 14.63 160.85 15.58Q161.44 16.53 161.44 17.80L161.44 17.80Q161.44 19.07 160.85 20.02Q160.26 20.97 159.20 21.48Q158.13 22 156.75 22L156.75 22ZM155.15 15.50L155.15 20.10L156.65 20.10Q157.73 20.10 158.39 19.49Q159.04 18.88 159.04 17.80L159.04 17.80Q159.04 16.72 158.39 16.11Q157.73 15.50 156.65 15.50L156.65 15.50L155.15 15.50ZM166.10 18.26L166.10 18.26L166.10 13.60L168.48 13.60L168.48 18.19Q168.48 20.20 170.07 20.20L170.07 20.20Q171.65 20.20 171.65 18.19L171.65 18.19L171.65 13.60L174.00 13.60L174.00 18.26Q174.00 20.13 172.96 21.15Q171.92 22.17 170.05 22.17L170.05 22.17Q168.17 22.17 167.14 21.15Q166.10 20.13 166.10 18.26ZM181.46 22L179.08 22L179.08 13.60L181.46 13.60L181.46 22ZM188.97 22L186.64 22L186.64 13.60L188.59 13.60L192.30 18.07L192.30 13.60L194.63 13.60L194.63 22L192.68 22L188.97 17.52L188.97 22ZM199.36 17.80L199.36 17.80Q199.36 16.55 199.97 15.55Q200.57 14.56 201.63 14.00Q202.70 13.43 204.03 13.43L204.03 13.43Q205.36 13.43 206.42 14.00Q207.48 14.56 208.09 15.55Q208.70 16.55 208.70 17.80L208.70 17.80Q208.70 19.05 208.09 20.04Q207.48 21.04 206.42 21.60Q205.36 22.17 204.03 22.17L204.03 22.17Q202.70 22.17 201.63 21.60Q200.57 21.04 199.97 20.04Q199.36 19.05 199.36 17.80ZM201.76 17.80L201.76 17.80Q201.76 18.51 202.06 19.05Q202.36 19.60 202.88 19.90Q203.39 20.20 204.03 20.20L204.03 20.20Q204.67 20.20 205.18 19.90Q205.70 19.60 206.00 19.05Q206.29 18.51 206.29 17.80L206.29 17.80Q206.29 17.09 206.00 16.54Q205.70 16 205.18 15.70Q204.67 15.40 204.03 15.40L204.03 15.40Q203.39 15.40 202.88 15.70Q202.36 16 202.06 16.54Q201.76 17.09 201.76 17.80Z" fill="#FFFFFF" x="126.31"/></svg>